<svg width="430" height="66" viewBox="0 0 430 66" fill="none" xmlns="http://www.w3.org/2000/svg">
<path d="M5.22802 -9.13177L4.80577 -8.71513L-2.37256 -1.62989L-6.58345 2.52273H-9.98715V5.8812L-14.1957 10.0361L-14.618 10.4528L-21.7986 17.5357V17.5381L-14.1957 25.0376L-9.98715 29.1926V32.5487H-6.58345L-2.37256 36.7037L-6.58345 40.8563H-9.98715V44.2148L-14.1957 48.3697L-14.618 48.7863L-21.7986 55.8693V55.8716L-14.1957 63.3712L-9.98715 67.5261V70.8823H-6.58345L-2.37256 75.0372L5.22802 82.5368V82.5392H5.23035L12.8309 75.0373L17.0395 70.8823H20.4432V67.5262L24.6541 63.3712L28.865 67.5262V70.8823H32.2687L36.4795 75.0373L44.0801 82.5392L51.683 75.0373L55.8916 70.8823H59.2953V67.5262L63.5062 63.3712L67.7171 67.5262V70.8846H71.1208L75.3316 75.0373L82.9299 82.5369L82.9323 82.5392L90.5329 75.0373L94.7438 70.8847H98.1475V67.5262L102.358 63.3713L106.567 67.5262V70.8847H109.971L114.181 75.0373L121.782 82.5369L129.385 75.0373L133.594 70.8847H136.997V67.5262L141.208 63.369L145.419 67.5262V70.8824H148.823L153.034 75.0373L160.634 82.5369L172.446 70.8824H175.849V67.5262L180.058 63.3713L184.269 67.5262V70.8824H187.672L191.883 75.0373L199.484 82.5392L207.085 75.0373L211.295 70.8824H214.699V67.5262L218.91 63.3713L223.121 67.5262V70.8824H226.525L230.733 75.0373L238.336 82.5392L245.937 75.0373L250.147 70.8824H253.551V67.5262L257.762 63.3713L261.971 67.5262V70.8824H265.374L269.585 75.0373L277.186 82.5369V82.5393H277.188L284.789 75.0374L289 70.8825H292.401V67.5263L296.612 63.3714L300.823 67.5263V70.8825H304.227L308.437 75.0374L316.038 82.5393L323.641 75.0374L327.852 70.8825H331.253V67.5263L335.464 63.3714L339.675 67.5263V70.8825H343.079L347.289 75.0374L354.89 82.5393L362.491 75.0374L366.702 70.8825H370.105V67.5263L374.316 63.3714L378.527 67.5263V70.8825H381.931L386.142 75.0374L393.742 82.5393L401.343 75.0374L405.554 70.8825H408.957V67.5263L413.168 63.3714L417.377 67.5263V70.8825H420.78L424.991 75.0374L432.592 82.537L440.193 75.0374L444.403 70.8825H447.807V67.5263L452.018 63.3691L459.619 55.8695L452.02 48.3699L447.807 44.215V40.8565H444.403L440.195 36.7039V36.7015L444.403 32.5489H447.807V29.1927L452.018 25.0355L459.619 17.5359L452.02 10.0363L447.807 5.88142V2.52295H444.403L440.195 -1.62967L432.594 -9.13155H432.592L432.17 -8.71491L420.78 2.52295H417.377V5.88142L413.166 10.034L408.957 5.88142V2.52295H405.554L401.343 -1.62967L393.742 -9.13155L393.32 -8.71491L386.142 -1.62967L381.931 2.52295H378.527V5.88142L374.316 10.0363L370.105 5.88142V2.52295H366.702L362.491 -1.62967L354.89 -9.13155L354.468 -8.71491L347.289 -1.62967L343.079 2.52295H339.675V5.88142L335.464 10.0363L331.253 5.88142V2.52295H327.852L323.641 -1.62967L316.038 -9.13155L315.616 -8.71491L308.437 -1.62967L304.226 2.52295H300.823V5.88142L296.612 10.0363L292.401 5.88142V2.52295H289L284.789 -1.62967L281.812 -4.56689L280.51 -5.85135L277.188 -9.13155H277.186L276.763 -8.71491L265.374 2.52295H261.971V5.88142L257.762 10.034L253.551 5.88142V2.52295H250.147L245.937 -1.62967L238.336 -9.13155L237.914 -8.71491L226.525 2.52295H223.121V5.88142L218.91 10.0363L214.699 5.88142V2.52295H211.295L207.084 -1.62967L199.484 -9.13155L199.062 -8.71491L191.883 -1.62967L187.672 2.52295H184.269V5.88142L180.058 10.034L175.849 5.88142V2.52295H172.446L168.235 -1.62967L160.634 -9.13155H160.632L160.209 -8.71491L153.031 -1.62967L148.823 2.52295H145.419V5.88142L141.206 10.0363L136.997 5.88142V2.52295H133.593L129.383 -1.62967L121.782 -9.12925L121.36 -8.71491V-8.71261L109.97 2.52525L106.567 2.52289V5.88136L102.358 10.0363L98.1474 5.88136V2.5252H94.7437L90.5328 -1.62973L82.9322 -9.13161L82.5099 -8.71497L75.3316 -1.62973L71.1207 2.5252H67.717V5.88136L63.5061 10.0363L59.2953 5.88136V2.52289H55.8916L51.683 -1.62973L44.0801 -9.13161L43.6578 -8.71497L36.4795 -1.62973L32.2686 2.52289H28.8649V5.88136L24.654 10.0363L20.4431 5.88136V2.52273H17.0395L12.8309 -1.62989L5.23036 -9.13177H5.22802ZM5.22802 -7.4629L11.1419 -1.62989L5.23036 4.20312L5.22803 4.20076L-0.683538 -1.62995L5.22802 -7.4629ZM44.0801 -7.4629L49.994 -1.62989L44.0801 4.20082H44.0777L38.1685 -1.62989L39.0667 -2.51612L40.1958 -3.63254L41.7355 -5.15179L44.0801 -7.4629ZM82.9322 -7.4629L88.8438 -1.62989L82.9322 4.20082H82.9298L77.0206 -1.62989L82.9322 -7.4629ZM121.782 -7.4629L127.694 -1.62989L121.782 4.20082L115.873 -1.62989L121.782 -7.4629ZM160.634 -7.4629L166.543 -1.62989L160.632 4.20312L154.72 -1.62989L160.634 -7.4629ZM199.484 -7.4629L201.828 -5.15179L204.285 -2.72559L205.395 -1.62989L199.484 4.20082H199.481L193.572 -1.62989L194.47 -2.51612L195.6 -3.63254L197.139 -5.15179L199.484 -7.4629ZM238.336 -7.4629L240.681 -5.15179L243.137 -2.72559L244.248 -1.62989L238.336 4.20082H238.334L232.424 -1.62989L233.323 -2.51612L234.452 -3.63254L235.991 -5.15179L238.336 -7.4629ZM277.186 -7.4629L283.1 -1.62989L277.188 4.20312L277.186 4.20076L271.274 -1.62995L277.186 -7.4629ZM316.038 -7.4629L321.952 -1.62989L316.038 4.20082L310.126 -1.62989L316.038 -7.4629ZM354.89 -7.4629L357.235 -5.15179L359.691 -2.72559L360.802 -1.62989L354.89 4.20082L348.978 -1.62989L349.877 -2.51612L351.006 -3.63254L352.545 -5.15179L354.89 -7.4629ZM393.742 -7.4629L396.087 -5.15179L398.543 -2.72559L399.654 -1.62989L393.742 4.20082L387.831 -1.62989L388.729 -2.51612L389.858 -3.63254L391.397 -5.15179L393.742 -7.4629ZM432.592 -7.4629L438.506 -1.62989L432.594 4.20312L432.592 4.20076L426.68 -1.62995L432.592 -7.4629ZM115.026 -0.798907L120.938 5.0341L117.823 8.10944H112.226V13.6294L109.114 16.7001L103.203 10.8694L107.761 6.3715V3.7013L110.465 3.70366L115.026 -0.798907ZM-1.52805 -0.79655L4.38351 5.03416L1.26909 8.10713H-4.32753V13.6294L-7.44195 16.7024L-13.3512 10.8694L-8.7927 6.3715V3.7013H-6.08887L-1.52805 -0.79655ZM11.9864 -0.79655L16.5449 3.70136H19.2487V6.37156L23.8096 10.8718L22.3282 12.3312L21.7939 12.8583L20.7581 13.8803L17.898 16.7025L14.7836 13.6294V8.10713H9.18695L6.07487 5.0364L11.9864 -0.79655ZM37.3241 -0.79655L43.2333 5.03416L40.1212 8.10719H34.5246V13.6294L31.4102 16.7025L25.4986 10.8695L30.0594 6.37156V3.70136H32.7632L37.3241 -0.79655ZM50.8385 -0.79655L55.397 3.70136H58.1009V6.37156L62.6617 10.8718L62.2557 11.27L61.9081 11.613L61.1803 12.3312L60.646 12.8583L59.6102 13.8803L56.7501 16.7025L53.6357 13.6294V8.10713H48.0391L44.927 5.0364L50.8385 -0.79655ZM76.1762 -0.79655L82.0877 5.03646L78.9733 8.10949H73.3767V13.6294L70.2623 16.7024L64.3507 10.8717L68.9115 6.3715V3.7036H71.6153L76.1762 -0.79655ZM89.6883 -0.79655L94.2491 3.70366H96.953V6.37156L101.511 10.8695L95.5999 16.7025L92.4878 13.6294V8.10944H86.8912L83.7767 5.0364L89.6883 -0.79655ZM128.538 -0.79655L133.099 3.70136H135.803V6.37156L140.361 10.8695L138.392 12.8146L134.452 16.7025L131.338 13.6294V8.10944H125.741L122.627 5.0341L125.582 2.1199L128.538 -0.79655ZM153.876 -0.79655L159.787 5.03646L156.675 8.10719H151.079V13.6294L147.962 16.7048L142.053 10.8718L146.613 6.37156V3.70136H149.317L153.876 -0.79655ZM167.39 -0.79655L171.951 3.70136H174.655V6.37156L179.213 10.8695L173.302 16.7002L170.19 13.6294V8.10719H164.593L161.479 5.03416L164.439 2.11535L167.39 -0.79655ZM192.728 -0.79655L198.637 5.03416L195.525 8.10719H189.928V13.6294L186.814 16.7002L180.905 10.8695L185.463 6.37156V3.70136H188.167L192.728 -0.79655ZM206.24 -0.79655L210.801 3.70136H213.505V6.37156L218.065 10.8695L212.154 16.7025L209.039 13.6294V8.10719H203.443L200.331 5.03416L206.24 -0.79655ZM231.578 -0.79655L237.489 5.03646L234.377 8.10719H228.78V13.6294L225.666 16.7025L219.754 10.8695L224.315 6.37156V3.70136H227.019L231.578 -0.79655ZM245.092 -0.79655L249.653 3.70136H252.357V6.37156L256.915 10.8695L251.006 16.7002L247.892 13.6294V8.10719H242.295L239.183 5.03416L245.092 -0.79655ZM270.43 -0.79655L276.341 5.03416L273.227 8.10719H267.63V13.6294L264.516 16.7025L264.233 16.4239L263.62 15.8185L262.971 15.1786L261.558 13.7814L258.607 10.8695L263.165 6.37156V3.70136H265.871L270.43 -0.79655ZM283.944 -0.79655L288.503 3.70136H291.206V6.37156L295.767 10.8695L293.801 12.81L290.889 15.6827L290 16.5621L289.856 16.7025L286.741 13.6294V8.10719H281.147L278.033 5.03646L283.944 -0.79655ZM309.282 -0.79655L315.193 5.03416L312.079 8.10719H306.482V13.6294L303.368 16.7025L297.459 10.8718L302.017 6.37156V3.70136H304.723L309.282 -0.79655ZM322.796 -0.79655L327.355 3.70136H330.059V6.37156L334.619 10.8695L332.653 12.81L329.741 15.6827L328.852 16.5621L328.708 16.7025L325.593 13.6294V8.10719H319.999L316.885 5.03416L319.845 2.11535L322.796 -0.79655ZM348.134 -0.79655L354.045 5.03416L350.931 8.10719H345.334V13.6294L342.22 16.7025L336.308 10.8695L340.869 6.37156V3.70136H343.573L348.134 -0.79655ZM361.646 -0.79655L366.207 3.70136H368.911V6.37156L373.471 10.8695L367.56 16.7025L364.446 13.6294V8.10719H358.849L355.734 5.03416L361.646 -0.79655ZM386.986 -0.79655L392.898 5.03416L389.783 8.10719H384.187V13.6294L381.072 16.7025L375.161 10.8695L379.721 6.37156V3.70136H382.425L386.986 -0.79655ZM400.498 -0.79655L405.059 3.70136H407.763V6.37156L412.321 10.8695L406.41 16.7002L403.298 13.6294V8.10719H397.701L394.587 5.03416L400.498 -0.79655ZM425.836 -0.79655L431.747 5.03416L428.633 8.10719H423.036V13.6294L419.922 16.7025L414.013 10.8695L418.571 6.37156V3.70136H421.275L425.836 -0.79655ZM439.35 -0.79655L443.909 3.70136H446.613V6.37156L451.173 10.8718L445.262 16.7048L442.147 13.6294V8.10719H436.551L433.439 5.03646L439.35 -0.79655ZM5.22802 5.86969H5.23035L8.69237 9.28571H13.5891V14.1197L17.0535 17.538L13.5891 20.954V25.7857H8.69005L5.23036 29.2017H5.22803L1.766 25.7857H-3.13309V20.954L-6.59511 17.538V17.5357L-3.13309 14.1196V9.28565H1.76367L5.22802 5.86969ZM44.0801 5.86969L47.5445 9.28571H52.4412V14.1197L55.9056 17.538L52.4412 20.954V25.7857H47.5422L44.0801 29.2017L40.6181 25.7857H35.719V20.954L32.2547 17.538L35.719 14.1197V9.28571H40.6158L44.0801 5.86969ZM82.9322 5.86969L86.3966 9.28801H91.2933V14.1197L94.7554 17.5357V17.5381L91.2933 20.9541V25.788H86.3943L82.9322 29.2017L79.4702 25.788H74.5711V20.954L71.1091 17.538L71.1067 17.5357L74.5711 14.1196V9.28801H79.4678L82.9322 5.86969ZM121.782 5.86969L125.246 9.28801H130.143V14.1197L133.607 17.5357V17.5381L130.143 20.9541V25.788H125.244L121.782 29.2017L118.32 25.788H113.421V20.954L109.959 17.538V17.5357L113.421 14.1196V9.28801H118.318L121.782 5.86969ZM160.632 5.86969H160.634L164.099 9.28571H168.995V14.1197L172.457 17.5357V17.5381L168.995 20.9541V25.7858H164.096L160.634 29.2018H160.632L157.172 25.7858H152.273V20.9541L148.811 17.5381L152.273 14.1197V9.28576H157.17L160.632 5.86969ZM199.484 5.86969L202.948 9.28571H207.845V14.1197L211.309 17.5357V17.5381L207.845 20.9541V25.7858H202.946L199.484 29.2018L196.022 25.7858H191.123V20.9541L187.658 17.5381L187.661 17.5357L191.123 14.1197V9.28571H196.02L199.484 5.86969ZM238.336 5.86969L241.8 9.28571H246.697V14.1197L250.159 17.5357V17.5381L246.697 20.9541V25.7858H241.798L238.336 29.2018L234.874 25.7858H229.975V20.954L226.511 17.538V17.5357L229.975 14.1196V9.28565H234.872L238.336 5.86969ZM277.186 5.86969H277.188L280.65 9.28571H285.547V14.1197L289.011 17.5357V17.5381L285.547 20.9541V25.7858H280.648L277.188 29.2018H277.186L273.726 25.7858H268.825V20.954L265.363 17.538V17.5357L268.825 14.1196V9.28565H273.724L277.186 5.86969ZM316.038 5.86969L319.502 9.28571H324.399V14.1197L327.863 17.5357V17.5381L324.399 20.9541V25.7858H319.5L316.038 29.2018L312.578 25.7858H307.677V20.954L304.215 17.538V17.5357L307.677 14.1196V9.28565H312.576L316.038 5.86969ZM354.89 5.86969L358.354 9.28571H363.251V14.1197L366.715 17.5357V17.5381L363.251 20.9541V25.7858H358.352L354.89 29.2018L351.428 25.7858H346.529V20.9541L343.067 17.5381L346.529 14.1197V9.28576H351.426L354.89 5.86969ZM393.742 5.86969L397.206 9.28571H402.103V14.1197L405.565 17.5357V17.5381L402.103 20.9541V25.7858H397.204L393.742 29.2018L390.28 25.7858H385.381V20.954L381.917 17.538V17.5357L385.381 14.1196V9.28565H390.278L393.742 5.86969ZM432.592 5.86969H432.594L436.056 9.28571H440.953V14.1197L444.417 17.5357V17.5381L440.953 20.9541V25.7858H436.054L432.594 29.2018H432.592L429.13 25.7858H424.231V20.9541L420.769 17.5381L420.766 17.5357L424.231 14.1197V9.28571H429.127L432.592 5.86969ZM-14.1957 11.7027L-8.28646 17.5357L-8.28413 17.5381L-14.1957 23.3711L-20.1096 17.5381L-14.1957 11.7027ZM180.058 11.7027L185.969 17.538L180.058 23.371L174.146 17.538L174.149 17.5357L178.031 13.7053L180.058 11.7027ZM218.91 11.7027L219.808 12.5889L220.02 12.7984L220.223 13.001L220.937 13.7053L222.477 15.2246L223.142 15.8806L223.513 16.2466L224.822 17.538L218.91 23.371L212.998 17.5357L218.91 11.7027ZM335.464 11.7027L341.375 17.5357L335.464 23.3687L329.552 17.5357L333.437 13.7053L335.464 11.7027ZM374.316 11.7027L375.214 12.5889L375.426 12.7984L375.629 13.001L376.343 13.7053L377.883 15.2246L378.548 15.8806L378.919 16.2466L380.228 17.538L374.316 23.371L368.404 17.5357L374.316 11.7027ZM413.168 11.7027L414.066 12.5889L414.279 12.7984L414.482 13.001L415.195 13.7053L416.735 15.2246L417.4 15.8806L417.771 16.2466L419.077 17.5357L419.08 17.5381L413.168 23.3711H413.166L407.257 17.538V17.5357L413.168 11.7027ZM24.6541 11.7051L30.5656 17.5381L24.6541 23.3711L18.7425 17.5358L21.6983 14.6193L22.6828 13.6479L23.175 13.1622L23.4526 12.8882L23.8422 12.5061L24.6541 11.7051ZM63.5062 11.7051L69.4177 17.538L63.5062 23.371L57.5946 17.538V17.5357L60.5504 14.6191L61.5349 13.6477L62.0271 13.162L63.5062 11.7051ZM102.358 11.7051L108.268 17.5358V17.5381L102.356 23.3687L96.4467 17.538L102.358 11.7051ZM141.208 11.7051L147.12 17.5381L141.208 23.3688L135.296 17.5358L141.208 11.7051ZM257.762 11.7051L263.671 17.5358L263.674 17.5381L257.762 23.3711L251.851 17.5358L257.762 11.7051ZM296.614 11.7051L302.523 17.5358L296.614 23.3665L290.703 17.5358L296.614 11.7051ZM452.018 11.7051L457.929 17.5358L452.018 23.3688L446.106 17.5381V17.5357L452.018 11.7051ZM-7.43962 18.3713L-4.32753 21.4444V26.9643H1.27143L4.38351 30.0351L-1.52805 35.8704L-6.08887 31.3702H-8.7927V28.7022L-13.3512 24.2043L-7.43962 18.3713ZM17.898 18.3713L23.8096 24.2044L19.2487 28.7023V31.3702H16.5449L11.9864 35.8704L6.07253 30.0351L9.18462 26.9643H14.7836V21.4444L17.898 18.3713ZM31.4102 18.3713L34.5246 21.4444V26.9643H40.1235L43.2356 30.0374L37.3241 35.8704L32.7632 31.3702H30.0594V28.7023L25.4986 24.2044L31.4102 18.3713ZM56.7501 18.3713L62.6617 24.2044L58.1009 28.7023V31.3702H55.397L50.8385 35.8704L44.9246 30.0374V30.035L48.0367 26.9643H53.6357V21.4443L56.7501 18.3713ZM70.2623 18.3713L73.3767 21.4444V26.9666H78.9756L82.0877 30.0373L76.1762 35.8703L71.6153 31.3724H68.9115V28.7022L64.3507 24.2043L70.2623 18.3713ZM95.6022 18.3713L101.511 24.2044L96.953 28.7023V31.3725H94.2491L89.6883 35.8703L83.7767 30.0373L86.8888 26.9666H92.4878V21.4443L95.6022 18.3713ZM109.114 18.3713L112.226 21.4444V26.9666H117.825L120.938 30.0373L115.026 35.8703L110.465 31.3724H107.761V28.7022L103.203 24.2043L109.114 18.3713ZM134.454 18.3713L140.364 24.2021L135.803 28.7023V31.3725H133.099L128.54 35.8704L122.627 30.0374L125.739 26.9666H131.338V21.4444L134.454 18.3713ZM147.964 18.3713L151.079 21.4444V26.9643H156.678L159.79 30.0351L157.825 31.9733L153.876 35.8681L149.317 31.3702H146.613V28.7023L142.053 24.2021L147.964 18.3713ZM173.302 18.3713L179.213 24.2044L174.655 28.7023V31.3702H171.951L167.39 35.8704L161.479 30.0351L164.591 26.9643H170.19V21.4444L173.302 18.3713ZM186.814 18.3713L189.928 21.4444V26.9643H195.527L198.639 30.0374L192.728 35.8704L188.167 31.3702H185.463V28.7023L180.902 24.2044L186.814 18.3713ZM212.154 18.3713L218.065 24.2044L213.505 28.7023V31.3702H210.801L206.24 35.8704L200.328 30.0374L203.44 26.9643H209.039V21.4444L212.154 18.3713ZM225.666 18.3713L228.78 21.4444V26.9643H234.379L237.491 30.0351V30.0374L231.58 35.8704H231.578L227.019 31.3702H224.315V28.7023L219.754 24.2044L225.666 18.3713ZM251.004 18.3713L256.918 24.2044L252.357 28.7023V31.3702H249.653L245.092 35.8704L239.18 30.0374L242.293 26.9643H247.892V21.4444L251.004 18.3713ZM264.518 18.3713L267.63 21.4444V26.9643H273.229L276.341 30.0351L270.43 35.8681L265.871 31.3702H263.165V28.7023L258.607 24.2044L264.518 18.3713ZM289.856 18.3713L295.765 24.2044L291.206 28.7023V31.3702H288.503L283.942 35.8704L281.812 33.7664L280.51 32.482L278.033 30.0351L281.145 26.9643H286.741V21.4444L289.856 18.3713ZM303.37 18.3713L306.482 21.4444V26.9643H312.081L315.193 30.0374L309.282 35.8704L304.723 31.3702H302.017V28.7023L297.459 24.2021L297.998 23.6703L298.646 23.0327L300.419 21.2832L303.37 18.3713ZM328.708 18.3713L334.617 24.2044L330.059 28.7023V31.3702H327.355L322.794 35.8704L316.882 30.0374L319.997 26.9643H325.593V21.4444L328.708 18.3713ZM342.222 18.3713L345.334 21.4444V26.9643H350.933L354.045 30.0374L348.134 35.8704L343.573 31.3702H340.869V28.7022L336.311 24.2043L342.222 18.3713ZM367.56 18.3713L373.469 24.2044L368.911 28.7023V31.3702H366.207L361.646 35.8704L355.734 30.0374L358.847 26.9643H364.446V21.4444L367.56 18.3713ZM381.072 18.3713L384.187 21.4444V26.9643H389.785L392.898 30.0374L386.986 35.8704L382.425 31.3702H379.721V28.7023L375.163 24.2044L381.072 18.3713ZM406.41 18.3713L412.321 24.2044L407.763 28.7023V31.3702H405.059L400.498 35.8704L394.587 30.0374L397.699 26.9643H403.298V21.4444L406.41 18.3713ZM419.924 18.3713L423.036 21.4444V26.9643H428.635L431.747 30.0351L425.836 35.8704H425.833L421.275 31.3702H418.571V28.7023L414.013 24.2044L419.924 18.3713ZM445.262 18.3713L451.173 24.2021L446.613 28.7023V31.3702H443.909L439.35 35.8681L433.436 30.0351L436.548 26.9643H442.147V21.4444L445.262 18.3713ZM141.208 25.0353L145.419 29.1926V32.5487H148.823L153.031 36.7014V36.7037L148.823 40.8563H145.419V44.2148L141.206 48.3697L136.997 44.2148V40.8563H133.593L129.385 36.7037L133.593 32.5511H136.997V29.1926L141.208 25.0353ZM24.6541 25.0377L28.865 29.1926V32.5488H32.2687L36.4795 36.7037L32.2687 40.8563H28.865V44.2148L24.6541 48.3697L20.4432 44.2148V40.8563H17.0395L12.8309 36.7037L17.0395 32.5488H20.4432V29.1926L24.6541 25.0377ZM63.5062 25.0377L67.7171 29.1926V32.5511H71.1208L75.3316 36.7037L71.1208 40.8586H67.7171V44.2148L63.5062 48.3697L59.2953 44.2148V40.8563H55.8916L51.683 36.7037L55.8916 32.5488H59.2953V29.1926L63.5062 25.0377ZM102.358 25.0377L106.567 29.1926V32.5511H109.971L114.181 36.7037L109.971 40.8586L106.567 40.8563V44.2148L102.358 48.3697L98.1474 44.2148V40.8586H94.7437L90.5328 36.7037L94.7437 32.551H98.1474V29.1926L102.358 25.0377ZM180.058 25.0377L184.269 29.1926V32.5488H187.672L191.883 36.7037L187.672 40.8563H184.269V44.2148L180.058 48.3674L175.849 44.2148V40.8563H172.446L168.235 36.7037L172.446 32.5488H175.849V29.1926L180.058 25.0377ZM218.91 25.0377L223.121 29.1926V32.5488H226.525L230.733 36.7037L226.525 40.8563H223.121V44.2148L218.91 48.3697L214.699 44.2148V40.8563H211.295L207.084 36.7037L211.295 32.5488H214.699V29.1926L218.91 25.0377ZM257.762 25.0377L261.971 29.1926V32.5488H265.374L269.585 36.7037L265.374 40.8563H261.971V44.2148L257.762 48.3674L253.551 44.2148V40.8563H250.147L245.937 36.7037L250.147 32.5488H253.551V29.1926L257.762 25.0377ZM296.612 25.0377L300.823 29.1926V32.5488H304.226L308.437 36.7037L304.226 40.8563H300.823V44.2148L296.612 48.3697L292.401 44.2148V40.8563H289L284.789 36.7037L289 32.5488H292.401V29.1926L296.612 25.0377ZM335.464 25.0377L339.675 29.1926V32.5488H343.078L347.289 36.7037L343.078 40.8563H339.675V44.2148L335.464 48.3697L331.253 44.2148V40.8563H327.852L323.641 36.7037L327.852 32.5488H331.253V29.1926L335.464 25.0377ZM374.316 25.0377L378.527 29.1926V32.5488H381.931L386.141 36.7037L381.931 40.8563H378.527V44.2148L374.316 48.3697L370.105 44.2148V40.8563H366.701L362.491 36.7037L366.701 32.5488H370.105V29.1926L374.316 25.0377ZM413.168 25.0377L417.377 29.1926V32.5488H420.78L424.989 36.7037L420.78 40.8563H417.377V44.2148L413.166 48.3674L408.957 44.2148V40.8563H405.554L401.343 36.7037L405.554 32.5488H408.957V29.1925L413.168 25.0377ZM5.22802 30.8706H5.23035L11.1419 36.7036L5.22802 42.5343L5.23035 42.5367L5.22802 42.5343L-0.683548 36.7036L5.22802 30.8706ZM44.0801 30.8706L49.9917 36.7036L44.0801 42.5343H44.0777L38.1685 36.7036L39.0667 35.8174L40.1958 34.701L41.7355 33.1817L44.0801 30.8706ZM82.9322 30.8706L88.8438 36.7036L82.9322 42.5343H82.9298L78.1311 37.7993L77.9188 37.5898L77.0206 36.7036L82.9322 30.8706ZM121.782 30.8706L127.694 36.7036L121.782 42.5343L115.873 36.7036L121.782 30.8706ZM160.632 30.8706H160.634L166.543 36.7036L160.634 42.5366L154.723 36.7036L157.676 33.7871L160.632 30.8706ZM199.484 30.8706L201.828 33.1817L204.285 35.6079L205.395 36.7036L199.484 42.5343H199.481L193.572 36.7036L194.47 35.8174L195.6 34.701L197.139 33.1817L199.484 30.8706ZM238.336 30.8706L240.681 33.1817L243.137 35.6079L244.248 36.7036L238.336 42.5343H238.334L232.424 36.7036L233.323 35.8174L234.452 34.701L235.991 33.1817L238.336 30.8706ZM277.186 30.8706H277.188L280.144 33.7871L283.097 36.7036L277.186 42.5343L277.188 42.5367L277.186 42.5343L271.274 36.7036L277.186 30.8706ZM316.038 30.8706L321.949 36.7036L318.996 39.6178L316.038 42.5343L310.126 36.7036L316.038 30.8706ZM354.89 30.8706L357.235 33.1817L359.691 35.6079L360.802 36.7036L354.89 42.5343L348.978 36.7036L349.877 35.8174L351.006 34.701L352.545 33.1817L354.89 30.8706ZM393.742 30.8706L396.087 33.1817L398.543 35.6079L399.654 36.7036L393.742 42.5343L387.831 36.7036L388.729 35.8174L389.858 34.701L391.397 33.1817L393.742 30.8706ZM432.592 30.8706H432.594L435.548 33.7871L438.503 36.7036L432.592 42.5343L432.594 42.5367L432.592 42.5343L426.68 36.7036L432.592 30.8706ZM-1.52805 37.5369L4.38351 43.3676L4.38119 43.37L1.26909 46.4406H-4.32753V51.9629L-7.44195 55.0359L-13.3512 49.2029L-8.7927 44.705V42.0348H-6.08887L-1.52805 37.5369ZM11.9864 37.5369L16.5449 42.0348H19.2487V44.705L23.8096 49.2052L22.3282 50.6646L21.7939 51.1917L20.7581 52.2138L17.898 55.0359L14.7836 51.9629V46.4406H9.18695L6.07487 43.3699L11.9864 37.5369ZM37.3241 37.5369L43.2333 43.3676L40.1212 46.4406H34.5246V51.9629L31.4102 55.0359L25.4986 49.2029L30.0594 44.705V42.0348H32.7632L37.3241 37.5369ZM50.8385 37.5369L55.397 42.0348H58.1009V44.705L62.6617 49.2052L62.2557 49.6034L61.9081 49.9464L61.1803 50.6646L60.646 51.1917L59.6102 52.2138L56.7501 55.0359L53.6357 51.9629V46.4406H48.0391L44.927 43.3699L50.8385 37.5369ZM76.1762 37.5369L82.0877 43.3699L78.9733 46.4429H73.3767V51.9629L70.2623 55.0359L64.3507 49.2052L68.9115 44.705V42.0371H71.6153L76.1762 37.5369ZM89.6883 37.5369L94.2491 42.0371H96.953V44.705L101.511 49.2029L95.5999 55.0359L92.4878 51.9629V46.4429H86.8912L83.7767 43.3699L89.6883 37.5369ZM115.026 37.5369L120.938 43.3676V43.37L117.823 46.443H112.226V51.9629L109.114 55.0337L103.203 49.203L107.761 44.7051V42.0349L110.465 42.0372L115.026 37.5369ZM128.538 37.5369L133.099 42.0348H135.803V44.705L140.361 49.2029L138.392 51.148L134.452 55.0359L131.338 51.9629V46.4429H125.741L122.629 43.3699L125.582 40.4534L128.538 37.5369ZM153.876 37.5369L159.787 43.3699L156.675 46.4406H151.079V51.9629L147.962 55.0382L142.053 49.2052L146.613 44.705V42.0348H149.317L153.876 37.5369ZM167.39 37.5369L171.951 42.0348H174.655V44.705L179.213 49.2029L173.302 55.0336L170.19 51.9629V46.4406H164.593L161.479 43.3699V43.3675L164.439 40.4487L167.39 37.5369ZM192.728 37.5369L198.637 43.3676L195.525 46.4406H189.928V51.9629L186.814 55.0336L180.905 49.2029L185.463 44.705V42.0348H188.167L192.728 37.5369ZM206.24 37.5369L210.801 42.0348H213.505V44.705L218.065 49.2029L212.154 55.0359L209.039 51.9629V46.4406H203.443L200.331 43.3676L206.24 37.5369ZM231.578 37.5369L237.489 43.3699L234.377 46.4406H228.78V51.9629L225.666 55.0359L219.754 49.2029L224.315 44.705V42.0348H227.019L231.578 37.5369ZM245.092 37.5369L249.653 42.0348H252.357V44.705L256.915 49.2029L251.006 55.0336L247.892 51.9629V46.4406H242.295L239.183 43.3676L245.092 37.5369ZM270.43 37.5369L276.341 43.3676V43.37L273.227 46.4407H267.63V51.9629L264.516 55.036L264.233 54.7574L263.62 54.152L262.971 53.5121L261.558 52.1149L258.607 49.203L263.165 44.7051V42.0349H265.871L270.43 37.5369ZM283.944 37.5369L288.503 42.0348H291.206V44.705L295.767 49.2029L293.801 51.1434L290.889 54.0162L290 54.8955L289.856 55.0359L286.741 51.9629V46.4406H281.147L278.033 43.3699L283.944 37.5369ZM309.282 37.5369L315.191 43.3699L312.079 46.4406H306.482V51.9629L303.368 55.0359L297.459 49.2052L302.017 44.705V42.0348H304.723L309.282 37.5369ZM322.796 37.5369L327.355 42.0348H330.059V44.705L334.619 49.2029L332.653 51.1434L329.741 54.0162L328.852 54.8955L328.708 55.0359L325.593 51.9629V46.4406H319.999L316.887 43.3699L316.885 43.3675L319.845 40.4487L322.796 37.5369ZM348.134 37.5369L354.043 43.3699L350.931 46.4406H345.334V51.9629L342.22 55.0359L336.308 49.2029L340.869 44.705V42.0348H343.573L348.134 37.5369ZM361.646 37.5369L366.207 42.0348H368.911V44.705L373.471 49.2029L367.56 55.0359L364.446 51.9629V46.4406H358.849L355.737 43.3699L361.646 37.5369ZM386.986 37.5369L392.895 43.3699L389.783 46.4406H384.187V51.9629L381.072 55.0359L375.161 49.2029L379.721 44.705V42.0348H382.425L386.986 37.5369ZM400.498 37.5369L405.059 42.0348H407.763V44.705L412.321 49.2029L406.41 55.0336L403.298 51.9629V46.4406H397.701L394.589 43.3699L400.498 37.5369ZM425.836 37.5369L431.747 43.3676L431.745 43.37L428.633 46.4407H423.036V51.9629L419.922 55.036L414.013 49.203L418.571 44.7051V42.0349H421.275L425.836 37.5369ZM439.35 37.5369L443.909 42.0348H446.613V44.705L451.173 49.2052L445.262 55.0382L442.147 51.9629V46.4406H436.551L433.439 43.3699L439.35 37.5369ZM44.0778 44.2032H44.0802H44.0826L44.0802 44.2055L47.5445 47.6193H52.4413V52.4532L55.9056 55.8715L52.4413 59.2875V64.1192H47.5422L44.0802 67.5352L40.6182 64.1192H35.7191V59.2875L32.2547 55.8715L35.719 52.4532V47.6192H40.6158L44.0801 44.2055L44.0778 44.2032ZM82.9299 44.2032H82.9323V44.2055L86.3966 47.6216H91.2934V52.4532L94.7554 55.8692V55.8716L91.2934 59.2876V64.1216H86.3943L82.9323 67.5353L79.4703 64.1216H74.5712V59.2876L71.1092 55.8716L71.1068 55.8692L74.5711 52.4532V47.6215H79.4679L82.9322 44.2055L82.9299 44.2032ZM121.782 44.2032L125.246 47.6215H130.143V52.4532L133.607 55.8692V55.8716L130.143 59.2876V64.1216H125.244L121.782 67.5353L118.32 64.1216H113.421V59.2876L109.959 55.8716V55.8692L113.421 52.4532V47.6215H118.318L121.782 44.2032ZM160.632 44.2032H160.634L164.099 47.6192H168.995V52.4532L172.457 55.8692V55.8716L168.995 59.2876V64.1193H164.096L160.634 67.5353L157.172 64.1193H152.273V59.2876L148.811 55.8715L152.273 52.4532V47.6192H157.17L160.632 44.2032ZM199.482 44.2032H199.484H199.486L199.484 44.2055L202.948 47.6193H207.845V52.4532L211.309 55.8692V55.8716L207.845 59.2876V64.1193H202.946L199.484 67.5353L196.022 64.1193H191.123V59.2876L187.658 55.8716L187.661 55.8692L191.123 52.4532V47.6192H196.02L199.484 44.2055L199.482 44.2032ZM238.334 44.2032H238.336H238.338L238.336 44.2055L241.8 47.6193H246.697V52.4532L250.159 55.8692V55.8716L246.697 59.2876V64.1193H241.798L238.336 67.5353L234.874 64.1193H229.975V59.2876L226.511 55.8716V55.8692L229.975 52.4532V47.6192H234.872L238.336 44.2055L238.334 44.2032ZM316.038 44.2032H316.04L316.038 44.2055L319.502 47.6193H324.399V52.4532L327.863 55.8692V55.8716L324.399 59.2876V64.1193H319.5L316.038 67.5353L312.578 64.1193H307.677V59.2876L304.215 55.8716V55.8692L307.677 52.4532V47.6192H312.576L316.038 44.2055V44.2032ZM354.888 44.2032H354.89H354.892L354.89 44.2055L358.354 47.6193H363.251V52.4532L366.715 55.8692V55.8716L363.251 59.2876V64.1193H358.352L354.89 67.5353L351.428 64.1193H346.529V59.2876L343.067 55.8715L346.529 52.4532V47.6192H351.426L354.89 44.2055L354.888 44.2032ZM393.74 44.2032H393.742H393.745L393.742 44.2055L397.206 47.6193H402.103V52.4532L405.565 55.8692V55.8716L402.103 59.2876V64.1193H397.204L393.742 67.5353L390.28 64.1193H385.381V59.2876L381.917 55.8716V55.8692L385.381 52.4532V47.6192H390.278L393.742 44.2055L393.74 44.2032ZM432.592 44.2032H432.594L436.056 47.6192H440.953V52.4532L444.417 55.8692V55.8716L440.953 59.2876V64.1193H436.054L432.592 67.5353L429.13 64.1193H424.231V59.2876L420.769 55.8716L420.766 55.8692L424.231 52.4532V47.6192H429.127L432.592 44.2032ZM5.22802 44.2055H5.23035L8.69237 47.6193H13.5891V52.4532L17.0535 55.8715L13.5891 59.2875V64.1192H8.69005L5.22802 67.5352L1.766 64.1192H-3.13309V59.2875L-6.59511 55.8715V55.8691L-3.13309 52.4532V47.6192H1.76367L5.22802 44.2055ZM277.186 44.2055H277.188L280.65 47.6193H285.547V52.4532L289.011 55.8692V55.8716L285.547 59.2876V64.1193H280.648L277.186 67.5353L273.726 64.1193H268.825V59.2876L265.363 55.8716V55.8692L268.825 52.4532V47.6192H273.724L277.186 44.2055ZM-14.1957 50.0363L-8.28646 55.8693L-8.28413 55.8716L-14.1957 61.7046L-20.1096 55.8716L-14.1957 50.0363ZM180.058 50.0363L185.969 55.8716L180.058 61.7046L174.146 55.8716L174.149 55.8692L178.031 52.0388L180.058 50.0363ZM218.91 50.0363L219.808 50.9225L220.02 51.132L220.223 51.3345L220.937 52.0389L222.477 53.5582L223.142 54.2142L223.513 54.5802L224.822 55.8716L218.91 61.7046L212.998 55.8693L218.91 50.0363ZM335.464 50.0363L341.375 55.8693L335.464 61.7023L329.552 55.8693L333.437 52.0389L335.464 50.0363ZM374.316 50.0363L375.214 50.9225L375.426 51.132L375.629 51.3345L376.343 52.0389L377.883 53.5582L378.548 54.2142L378.919 54.5802L380.228 55.8716L374.316 61.7046L368.404 55.8693L374.316 50.0363ZM413.168 50.0363L414.066 50.9225L414.279 51.132L414.482 51.3345L415.195 52.0389L416.735 53.5582L417.4 54.2142L417.771 54.5802L419.077 55.8693L419.08 55.8716L413.168 61.7046H413.166L407.257 55.8716V55.8693L413.168 50.0363ZM24.6541 50.0386L30.5656 55.8716L24.6541 61.7046L18.7425 55.8693L21.6983 52.9528L22.6828 51.9814L23.175 51.4957L23.4526 51.2218L23.8422 50.8397L24.6541 50.0386ZM63.5062 50.0386L69.4177 55.8716L63.5062 61.7046L57.5946 55.8716V55.8693L60.5504 52.9528L61.5349 51.9814L62.0271 51.4957L63.5062 50.0386ZM102.358 50.0386L108.268 55.8693V55.8717L102.356 61.7024L96.4467 55.8717L102.358 50.0386ZM141.208 50.0386L147.12 55.8716L141.208 61.7023L135.296 55.8693L141.208 50.0386ZM257.762 50.0386L263.671 55.8693L263.674 55.8717L257.762 61.7047L251.851 55.8694L257.762 50.0386ZM296.614 50.0386L302.523 55.8693L296.614 61.7L290.703 55.8693L296.614 50.0386ZM452.018 50.0386L457.929 55.8693L452.018 61.7023L446.106 55.8716V55.8693L452.018 50.0386ZM-7.43962 56.7049L-4.32753 59.7779V65.2979H1.27143L4.38585 68.3709L-1.52805 74.2039L-6.08887 69.7037H-8.7927V67.0358L-13.3512 62.5379L-7.43962 56.7049ZM17.898 56.7049L23.8096 62.5379L19.2487 67.0358V69.7037H16.5449L11.9864 74.2039L6.07253 68.3686L9.18462 65.2979H14.7836V59.7779L17.898 56.7049ZM31.4102 56.7049L34.5246 59.7779V65.2979H40.1235L43.2356 68.3709L37.3241 74.2039L32.7632 69.7037H30.0594V67.0358L25.4986 62.5379L31.4102 56.7049ZM56.7501 56.7049L62.6617 62.5379L58.1009 67.0358V69.7037H55.397L50.8362 74.2039L44.9246 68.3709L48.0367 65.2979H53.6357V59.7779L56.7501 56.7049ZM70.2623 56.7049L73.3767 59.7779V65.3002H78.9756L82.0877 68.3709L76.1762 74.2039L71.6153 69.706H68.9115V67.0357L64.3507 62.5378L70.2623 56.7049ZM95.6022 56.7049L101.511 62.5379L96.953 67.0358V69.706H94.2491L89.6883 74.2039L83.7767 68.3709L86.8888 65.3002H92.4878V59.7779L95.6022 56.7049ZM109.114 56.7049L112.226 59.7779V65.3002H117.825L120.938 68.3708L115.026 74.2038L110.465 69.7059H107.761V67.0357L103.203 62.5378L109.114 56.7049ZM134.454 56.7049L140.364 62.5356L135.803 67.0358V69.706H133.099L128.54 74.2039L122.627 68.3709L125.739 65.3002H131.338V59.7779L134.454 56.7049ZM147.964 56.7049L151.079 59.7779V65.2979H156.678L159.79 68.3686L157.825 70.3068L153.878 74.2039L149.317 69.7037H146.613V67.0358L142.053 62.5356L147.964 56.7049ZM173.302 56.7049L179.213 62.5379L174.655 67.0358V69.7037H171.951L167.39 74.2039L161.476 68.3709L164.591 65.2979H170.19V59.7779L173.302 56.7049ZM186.814 56.7049L189.928 59.7779V65.2979H195.527L198.639 68.3709L192.728 74.2039L188.167 69.7037H185.463V67.0358L180.902 62.5379L186.814 56.7049ZM212.154 56.7049L218.065 62.5379L213.505 67.0358V69.7037H210.801L206.24 74.2039L200.328 68.3709L203.44 65.2979H209.039V59.7779L212.154 56.7049ZM225.666 56.7049L228.78 59.7779V65.2979H234.379L237.491 68.3709L231.58 74.2039L227.019 69.7037H224.315V67.0358L219.754 62.5379L225.666 56.7049ZM251.004 56.7049L256.918 62.5379L252.357 67.0358V69.7037H249.653L245.092 74.2039L239.18 68.3709L242.293 65.2979H247.892V59.7779L251.004 56.7049ZM264.518 56.7049L267.63 59.7779V65.2979H273.229L276.344 68.3709L274.372 70.316L270.43 74.2039L265.871 69.7037H263.165V67.0358L258.607 62.5379L264.518 56.7049ZM289.856 56.7049L295.765 62.5379L291.206 67.0358V69.7037H288.503L283.942 74.2039L278.03 68.3709L281.145 65.2979H286.741V59.7779L289.856 56.7049ZM303.37 56.7049L306.482 59.7779V65.2979H312.081L315.193 68.3709L309.282 74.2039L304.723 69.7037H302.017V67.0358L297.459 62.5356L297.998 62.0039L298.646 61.3662L300.419 59.6168L303.37 56.7049ZM328.708 56.7049L334.617 62.5379L330.059 67.0358V69.7037H327.355L322.794 74.2039L316.882 68.3709L319.997 65.2979H325.593V59.7779L328.708 56.7049ZM342.222 56.7049L345.334 59.7779V65.2979H350.933L354.045 68.3709L348.134 74.2039L343.573 69.7037H340.869V67.0358L336.311 62.5379L342.222 56.7049ZM367.56 56.7049L373.469 62.5379L368.911 67.0358V69.7037H366.207L361.646 74.2039L355.734 68.3709L358.847 65.2979H364.446V59.7779L367.56 56.7049ZM381.072 56.7049L384.187 59.7779V65.2979H389.785L392.898 68.3709L386.986 74.2039L382.425 69.7037H379.721V67.0358L375.163 62.5379L381.072 56.7049ZM406.41 56.7049L412.321 62.5379L407.763 67.0358V69.7037H405.059L400.498 74.2039L394.587 68.3709L397.699 65.2979H403.298V59.7779L406.41 56.7049ZM419.924 56.7049L423.036 59.7779V65.2979H428.635L431.75 68.3709L429.778 70.316L425.836 74.2039L421.275 69.7037H418.571V67.0358L414.013 62.5379L419.924 56.7049ZM445.262 56.7049L451.173 62.5356L446.613 67.0358V69.7037H443.909L439.348 74.2039L433.436 68.3686L436.548 65.2979H442.147V59.7778L445.262 56.7049ZM5.22802 69.2041H5.23035L11.1419 75.0371L5.22802 80.8701L-0.683548 75.0371L5.22802 69.2041ZM44.0801 69.2041L49.9917 75.0371L44.0801 80.8701L38.1686 75.0371L44.0801 69.2041ZM82.9322 69.2041L88.8438 75.0371L82.9322 80.8701H82.9298L78.1311 76.1328L77.9188 75.9233L77.0206 75.0371L82.9322 69.2041ZM121.782 69.2041L127.694 75.0371L121.782 80.8701L115.87 75.0371L121.782 69.2041ZM160.632 69.2041H160.634L166.543 75.0371L160.634 80.8701L154.723 75.0371L160.632 69.2041ZM199.484 69.2041L205.395 75.0371L199.484 80.8701L193.572 75.0371L199.484 69.2041ZM238.336 69.2041L244.248 75.0371L238.336 80.8701L232.424 75.0371L238.336 69.2041ZM277.186 69.2041H277.188L283.097 75.0371L277.186 80.8701L271.274 75.0371L277.186 69.2041ZM316.038 69.2041L321.949 75.0371L316.038 80.8701L310.126 75.0371L316.038 69.2041ZM354.89 69.2041L360.802 75.0371L354.89 80.8701L348.978 75.0371L354.89 69.2041ZM393.742 69.2041L399.654 75.0371L393.742 80.8701L387.831 75.0371L393.742 69.2041ZM432.592 69.2041H432.594L438.503 75.0371L432.592 80.8701L426.68 75.0371L432.592 69.2041Z" fill="url(#paint0_linear_13_7)"/>
<defs>
<linearGradient id="paint0_linear_13_7" x1="-21.5" y1="36.5357" x2="459.861" y2="36.5357" gradientUnits="userSpaceOnUse">
<stop stop-color="white" stop-opacity="0.32"/>
<stop offset="1" stop-color="white" stop-opacity="0"/>
</linearGradient>
</defs>
</svg>
