<svg width="1440" height="1024" viewBox="0 0 1440 1024" fill="none" xmlns="http://www.w3.org/2000/svg">
<g opacity="0.1">
<mask id="mask0_302_1128" style="mask-type:alpha" maskUnits="userSpaceOnUse" x="0" y="0" width="1440" height="1024">
<rect width="1440" height="1024" fill="white"/>
</mask>
<g mask="url(#mask0_302_1128)">
<path d="M391.5 -217L1069.5 807" stroke="white" stroke-opacity="0.25" stroke-width="0.5"/>
<path d="M507 -217L1185 807" stroke="white" stroke-opacity="0.25" stroke-width="0.5"/>
<path d="M622.5 -217L1300.5 807" stroke="white" stroke-opacity="0.25" stroke-width="0.5"/>
<path d="M738 -217L1416 807" stroke="white" stroke-opacity="0.25" stroke-width="0.5"/>
<path d="M853.5 -217L1531.5 807" stroke="white" stroke-opacity="0.25" stroke-width="0.5"/>
<path d="M969 -217L1647 807" stroke="white" stroke-opacity="0.25" stroke-width="0.5"/>
<path d="M1084.5 -217L1762.5 807" stroke="white" stroke-opacity="0.25" stroke-width="0.5"/>
<path d="M1200 -217L1878 807" stroke="white" stroke-opacity="0.25" stroke-width="0.5"/>
<path d="M1315.5 -217L1993.5 807" stroke="white" stroke-opacity="0.25" stroke-width="0.5"/>
<path d="M1431 -217L2109 807" stroke="white" stroke-opacity="0.25" stroke-width="0.5"/>
<path d="M1546.5 -217L2224.5 807" stroke="white" stroke-opacity="0.25" stroke-width="0.5"/>
<path d="M1662 -217L2340 807" stroke="white" stroke-opacity="0.25" stroke-width="0.5"/>
<path d="M1777.5 -217L2455.5 807" stroke="white" stroke-opacity="0.25" stroke-width="0.5"/>
<path d="M1893 -217L2571 807" stroke="white" stroke-opacity="0.25" stroke-width="0.5"/>
<path d="M0 -217L678 807" stroke="white" stroke-opacity="0.25" stroke-width="0.5"/>
<path d="M115.5 -217L793.5 807" stroke="white" stroke-opacity="0.25" stroke-width="0.5"/>
<path d="M231 -217L909 807" stroke="white" stroke-opacity="0.25" stroke-width="0.5"/>
<path d="M346.5 -217L1024.5 807" stroke="white" stroke-opacity="0.25" stroke-width="0.5"/>
<path d="M462 -217L1140 807" stroke="white" stroke-opacity="0.25" stroke-width="0.5"/>
<path d="M577.5 -217L1255.5 807" stroke="white" stroke-opacity="0.25" stroke-width="0.5"/>
<path d="M693 -217L1371 807" stroke="white" stroke-opacity="0.25" stroke-width="0.5"/>
<path d="M808.5 -217L1486.5 807" stroke="white" stroke-opacity="0.25" stroke-width="0.5"/>
<path d="M924 -217L1602 807" stroke="white" stroke-opacity="0.25" stroke-width="0.5"/>
<path d="M1039.5 -217L1717.5 807" stroke="white" stroke-opacity="0.25" stroke-width="0.5"/>
<path d="M1155 -217L1833 807" stroke="white" stroke-opacity="0.25" stroke-width="0.5"/>
<path d="M1270.5 -217L1948.5 807" stroke="white" stroke-opacity="0.25" stroke-width="0.5"/>
<path d="M1386 -217L2064 807" stroke="white" stroke-opacity="0.25" stroke-width="0.5"/>
<path d="M1501.5 -217L2179.5 807" stroke="white" stroke-opacity="0.25" stroke-width="0.5"/>
<path d="M1617 -217L2295 807" stroke="white" stroke-opacity="0.25" stroke-width="0.5"/>
<path d="M1732.5 -217L2410.5 807" stroke="white" stroke-opacity="0.25" stroke-width="0.5"/>
<path d="M1848 -217L2526 807" stroke="white" stroke-opacity="0.25" stroke-width="0.5"/>
<path d="M-45 -217L633 807" stroke="white" stroke-opacity="0.25" stroke-width="0.5"/>
<path d="M70.5 -217L748.5 807" stroke="white" stroke-opacity="0.25" stroke-width="0.5"/>
<path d="M186 -217L864 807" stroke="white" stroke-opacity="0.25" stroke-width="0.5"/>
<path d="M301.5 -217L979.5 807" stroke="white" stroke-opacity="0.25" stroke-width="0.5"/>
<path d="M1969.5 264L1291.5 1288" stroke="white" stroke-opacity="0.25" stroke-width="0.5"/>
<path d="M1854 264L1176 1288" stroke="white" stroke-opacity="0.25" stroke-width="0.5"/>
<path d="M1738.5 264L1060.5 1288" stroke="white" stroke-opacity="0.25" stroke-width="0.5"/>
<path d="M1623 264L945 1288" stroke="white" stroke-opacity="0.25" stroke-width="0.5"/>
<path d="M1507.5 264L829.5 1288" stroke="white" stroke-opacity="0.25" stroke-width="0.5"/>
<path d="M1392 264L714 1288" stroke="white" stroke-opacity="0.25" stroke-width="0.5"/>
<path d="M1276.5 264L598.5 1288" stroke="white" stroke-opacity="0.25" stroke-width="0.5"/>
<path d="M1161 264L483 1288" stroke="white" stroke-opacity="0.25" stroke-width="0.5"/>
<path d="M1045.5 264L367.5 1288" stroke="white" stroke-opacity="0.25" stroke-width="0.5"/>
<path d="M930 264L252 1288" stroke="white" stroke-opacity="0.25" stroke-width="0.5"/>
<path d="M814.5 264L136.5 1288" stroke="white" stroke-opacity="0.25" stroke-width="0.5"/>
<path d="M699 264L21 1288" stroke="white" stroke-opacity="0.25" stroke-width="0.5"/>
<path d="M583.5 264L-94.5 1288" stroke="white" stroke-opacity="0.25" stroke-width="0.5"/>
<path d="M468 264L-210 1288" stroke="white" stroke-opacity="0.25" stroke-width="0.5"/>
<path d="M2361 264L1683 1288" stroke="white" stroke-opacity="0.25" stroke-width="0.5"/>
<path d="M2245.5 264L1567.5 1288" stroke="white" stroke-opacity="0.25" stroke-width="0.5"/>
<path d="M2130 264L1452 1288" stroke="white" stroke-opacity="0.25" stroke-width="0.5"/>
<path d="M2014.5 264L1336.5 1288" stroke="white" stroke-opacity="0.25" stroke-width="0.5"/>
<path d="M1899 264L1221 1288" stroke="white" stroke-opacity="0.25" stroke-width="0.5"/>
<path d="M1783.5 264L1105.5 1288" stroke="white" stroke-opacity="0.25" stroke-width="0.5"/>
<path d="M1668 264L990 1288" stroke="white" stroke-opacity="0.25" stroke-width="0.5"/>
<path d="M1552.5 264L874.5 1288" stroke="white" stroke-opacity="0.25" stroke-width="0.5"/>
<path d="M1437 264L759 1288" stroke="white" stroke-opacity="0.25" stroke-width="0.5"/>
<path d="M1321.5 264L643.5 1288" stroke="white" stroke-opacity="0.25" stroke-width="0.5"/>
<path d="M1206 264L528 1288" stroke="white" stroke-opacity="0.25" stroke-width="0.5"/>
<path d="M1090.5 264L412.5 1288" stroke="white" stroke-opacity="0.25" stroke-width="0.5"/>
<path d="M975 264L297 1288" stroke="white" stroke-opacity="0.25" stroke-width="0.5"/>
<path d="M859.5 264L181.5 1288" stroke="white" stroke-opacity="0.25" stroke-width="0.5"/>
<path d="M744 264L66 1288" stroke="white" stroke-opacity="0.25" stroke-width="0.5"/>
<path d="M628.5 264L-49.5 1288" stroke="white" stroke-opacity="0.25" stroke-width="0.5"/>
<path d="M513 264L-165 1288" stroke="white" stroke-opacity="0.25" stroke-width="0.5"/>
<path d="M2406 264L1728 1288" stroke="white" stroke-opacity="0.25" stroke-width="0.5"/>
<path d="M2290.5 264L1612.5 1288" stroke="white" stroke-opacity="0.25" stroke-width="0.5"/>
<path d="M2175 264L1497 1288" stroke="white" stroke-opacity="0.25" stroke-width="0.5"/>
<path d="M2059.5 264L1381.5 1288" stroke="white" stroke-opacity="0.25" stroke-width="0.5"/>
</g>
</g>
</svg> 