<svg width="397" height="200" viewBox="0 0 397 200" fill="none" xmlns="http://www.w3.org/2000/svg">
<rect width="397" height="200" rx="8" fill="url(#paint0_linear_91_62)"/>
<path d="M120.851 144.84L120.467 143.64C121.331 143.032 122.387 142.248 123.635 141.288C124.915 140.36 126.259 139.32 127.667 138.168C129.107 136.984 130.499 135.8 131.843 134.616C133.219 133.4 134.435 132.232 135.491 131.112C136.579 129.992 137.395 129 137.939 128.136C138.515 127.176 139.011 126.328 139.427 125.592C139.843 124.856 140.211 124.136 140.531 123.432C140.883 122.696 141.235 121.88 141.587 120.984C141.971 120.056 142.403 118.952 142.883 117.672L144.611 117.912C144.227 119.64 143.699 121.576 143.027 123.72C142.387 125.832 141.635 127.928 140.771 130.008C139.939 132.088 139.043 133.992 138.083 135.72C137.123 137.416 136.163 138.728 135.203 139.656C134.947 139.88 134.387 140.184 133.523 140.568C132.659 140.952 131.635 141.352 130.451 141.768C129.299 142.184 128.099 142.6 126.851 143.016C125.603 143.432 124.435 143.8 123.347 144.12C122.291 144.44 121.459 144.68 120.851 144.84ZM159.504 141C156.88 141 154.976 140.12 153.792 138.36C152.608 136.568 152.016 133.64 152.016 129.576C152.016 128.808 152.016 128.04 152.016 127.272C152.048 126.504 152.08 125.64 152.112 124.68C152.176 123.688 152.24 122.52 152.304 121.176C152.368 119.8 152.448 118.136 152.544 116.184C152.672 113.528 152.848 111.128 153.072 108.984C153.296 106.808 153.632 104.76 154.08 102.84C154.56 100.92 155.232 99 156.096 97.08L157.344 97.416C157.184 98.152 156.992 99.304 156.768 100.872C156.576 102.44 156.384 104.264 156.192 106.344C156 108.392 155.84 110.584 155.712 112.92C155.584 115.256 155.52 117.56 155.52 119.832C155.52 121.624 155.648 123.176 155.904 124.488C156.16 125.768 156.544 126.824 157.056 127.656C157.568 128.456 158.224 129.064 159.023 129.48C159.824 129.864 160.768 130.056 161.856 130.056C162.624 130.056 163.168 130.472 163.488 131.304C163.808 132.104 163.968 133.24 163.968 134.712C163.968 135.96 163.792 137.064 163.44 138.024C163.12 138.952 162.624 139.688 161.952 140.232C161.312 140.744 160.496 141 159.504 141ZM159.484 141C158.876 141 158.364 140.632 157.948 139.896C157.532 139.16 157.324 137.912 157.324 136.152C157.324 134.776 157.516 133.64 157.9 132.744C158.284 131.848 158.812 131.176 159.484 130.728C160.156 130.28 160.94 130.056 161.836 130.056C163.916 130.056 165.66 129.656 167.068 128.856C168.508 128.056 169.852 126.872 171.1 125.304C172.188 123.928 173.164 122.968 174.028 122.424C174.924 121.88 175.788 121.608 176.62 121.608C177.484 121.608 178.444 121.768 179.5 122.088C180.588 122.408 181.532 122.84 182.332 123.384C183.132 123.896 183.532 124.504 183.532 125.208C183.532 125.88 183.372 126.616 183.052 127.416C182.732 128.216 182.3 128.984 181.756 129.72C181.212 130.456 180.604 131.064 179.932 131.544C179.26 131.992 178.588 132.216 177.916 132.216C177.5 132.216 177.036 132.12 176.524 131.928C176.044 131.736 175.5 131.48 174.892 131.16C174.284 130.808 173.724 130.552 173.212 130.392C172.732 130.232 172.268 130.152 171.82 130.152C171.052 130.152 170.412 130.424 169.9 130.968C169.388 131.512 168.716 132.488 167.884 133.896C167.756 134.152 167.612 134.408 167.452 134.664C167.292 134.92 167.132 135.176 166.972 135.432C165.788 137.384 164.636 138.808 163.516 139.704C162.428 140.568 161.084 141 159.484 141ZM187.756 95.928C186.892 95.096 186.22 94.472 185.74 94.056C185.26 93.608 184.86 93.24 184.54 92.952C184.22 92.664 183.82 92.36 183.34 92.04V91.56C183.596 91.176 183.948 90.728 184.396 90.216C184.844 89.672 185.324 89.144 185.836 88.632C186.348 88.088 186.812 87.624 187.228 87.24C187.612 86.824 187.884 86.568 188.044 86.472H188.524C189.26 86.952 189.9 87.416 190.444 87.864C190.956 88.28 191.372 88.68 191.692 89.064C192.364 88.264 193.036 87.544 193.708 86.904C194.38 86.232 194.86 85.8 195.148 85.608H195.628C197.068 86.504 198.092 87.288 198.7 87.96C199.34 88.6 199.66 89.288 199.66 90.024C199.66 90.824 199.196 91.672 198.268 92.568C197.372 93.464 196.364 94.296 195.244 95.064H194.86C194.188 94.424 193.628 93.912 193.18 93.528C192.764 93.112 192.364 92.744 191.98 92.424C191.276 93.512 189.996 94.68 188.14 95.928H187.756ZM191.212 87.144C190.764 86.696 190.38 86.328 190.06 86.04C189.74 85.72 189.404 85.4 189.052 85.08C188.668 84.728 188.14 84.28 187.468 83.736V83.352C187.756 82.936 188.172 82.44 188.716 81.864C189.228 81.256 189.74 80.696 190.252 80.184C190.764 79.672 191.164 79.32 191.452 79.128H191.836C193.212 80.024 194.14 80.744 194.62 81.288C195.132 81.8 195.388 82.28 195.388 82.728C195.388 83.208 195.1 83.8 194.524 84.504C193.948 85.208 192.988 86.088 191.644 87.144H191.212ZM180.626 126.8C179.506 126.8 178.402 126.688 177.314 126.464C176.226 126.24 175.33 125.872 174.626 125.36C173.922 124.848 173.57 124.176 173.57 123.344C173.57 122.736 173.682 122.064 173.906 121.328C174.13 120.592 174.386 119.904 174.674 119.264C175.506 117.472 176.338 115.904 177.17 114.56C178.034 113.216 178.882 112.096 179.714 111.2C180.578 110.272 181.426 109.584 182.258 109.136C183.122 108.656 183.938 108.416 184.706 108.416C185.538 108.416 186.194 108.512 186.674 108.704C187.154 108.864 187.57 109.056 187.922 109.28C188.306 109.504 188.706 109.712 189.122 109.904C189.57 110.064 190.146 110.144 190.85 110.144C192.002 110.144 192.994 109.808 193.826 109.136C194.69 108.432 195.41 107.68 195.986 106.88L196.706 106.832C197.346 107.312 197.874 107.648 198.29 107.84C198.738 108 199.186 108.08 199.634 108.08C200.658 108.08 201.506 107.664 202.178 106.832C202.882 106 203.522 104.8 204.098 103.232L205.778 103.424C204.722 108.064 203.506 111.36 202.13 113.312C200.754 115.264 199.202 116.24 197.474 116.24C196.866 116.24 196.274 116.144 195.698 115.952C195.122 115.728 194.642 115.488 194.258 115.232C193.362 116.608 192.45 117.536 191.522 118.016C190.626 118.496 189.698 118.736 188.738 118.736C187.746 118.736 186.946 118.592 186.338 118.304C185.73 117.984 185.202 117.632 184.754 117.248C184.306 116.864 183.826 116.528 183.314 116.24C182.834 115.92 182.21 115.76 181.442 115.76C180.642 115.76 179.922 115.984 179.282 116.432C178.674 116.848 178.194 117.376 177.842 118.016C177.714 118.304 177.602 118.608 177.506 118.928C177.442 119.216 177.41 119.536 177.41 119.888C177.41 120.368 177.666 120.832 178.178 121.28C178.69 121.696 179.458 122.112 180.482 122.528C181.506 122.944 182.258 123.408 182.738 123.92C183.25 124.432 183.506 124.992 183.506 125.6C183.506 126.016 183.202 126.32 182.594 126.512C182.018 126.704 181.362 126.8 180.626 126.8ZM212.96 143.784L212.576 142.584C213.472 142.008 214.432 141.4 215.457 140.76C216.513 140.12 217.633 139.432 218.817 138.696C220.033 137.928 221.313 137.144 222.657 136.344C224.033 135.512 225.217 134.696 226.209 133.896C227.201 133.096 228.049 132.28 228.753 131.448C229.457 130.584 230.033 129.72 230.481 128.856L231.681 126.504C232.321 125.288 232.929 124.28 233.505 123.48C234.113 122.648 234.785 121.928 235.521 121.32C236.193 120.776 236.945 120.264 237.777 119.784C238.609 119.272 239.585 118.728 240.705 118.152C242.881 117.032 244.225 115.832 244.737 114.552C244.993 113.912 245.281 113.432 245.601 113.112C245.953 112.792 246.305 112.632 246.657 112.632C246.849 112.632 247.041 112.696 247.233 112.824C247.457 112.952 247.569 113.144 247.569 113.4C247.569 113.56 247.505 113.864 247.377 114.312C247.249 114.76 247.009 115.464 246.657 116.424C246.017 118.312 245.329 119.944 244.593 121.32C243.889 122.696 243.105 123.848 242.241 124.776C241.409 125.672 240.481 126.36 239.457 126.84C238.753 127.16 238.033 127.496 237.297 127.848C236.561 128.2 235.825 128.552 235.089 128.904C233.905 129.48 233.057 130.056 232.545 130.632C232.033 131.176 231.617 131.864 231.297 132.696C230.817 134.04 230.385 135.192 230.001 136.152C229.649 137.112 229.345 137.928 229.089 138.6C228.833 139.24 228.609 139.752 228.417 140.136C228.225 140.52 228.065 140.808 227.937 141C227.745 141.256 227.105 141.528 226.017 141.816C224.929 142.104 223.393 142.408 221.409 142.728C220.129 142.92 218.961 143.096 217.905 143.256C216.849 143.416 215.921 143.528 215.12 143.592C214.288 143.688 213.568 143.752 212.96 143.784ZM243.816 118.824C243.432 118.824 243.24 118.648 243.24 118.296C243.24 118.168 243.256 118.024 243.288 117.864C243.32 117.704 243.448 117.416 243.672 117C244.408 115.688 244.968 114.344 245.352 112.968C245.768 111.56 245.992 110.36 246.024 109.368L246.648 94.488C246.712 93.4 246.776 92.504 246.84 91.8C246.936 91.096 247.048 90.44 247.176 89.832C247.336 89.224 247.544 88.52 247.8 87.72C248.824 84.552 250.04 81.864 251.448 79.656C252.856 77.416 254.344 75.512 255.912 73.944C256.808 73.048 257.944 71.976 259.32 70.728C260.696 69.448 262.312 68.008 264.168 66.408C265.928 64.872 267.336 63.64 268.392 62.712C269.448 61.784 270.296 61.032 270.936 60.456C271.576 59.88 272.12 59.368 272.568 58.92C273.048 58.472 273.56 57.976 274.104 57.432C274.52 57.016 274.936 56.6 275.352 56.184C275.768 55.768 276.184 55.352 276.6 54.936L277.416 55.224C277.288 55.928 277.064 56.792 276.744 57.816C276.456 58.84 276.104 59.912 275.688 61.032C275.304 62.12 274.856 63.16 274.344 64.152C273.864 65.112 273.352 65.912 272.808 66.552C271.816 67.736 270.456 69.048 268.728 70.488C267.032 71.928 265.176 73.496 263.16 75.192C261.912 76.216 260.712 77.224 259.56 78.216C258.44 79.208 257.384 80.152 256.392 81.048C255.432 81.944 254.552 82.792 253.752 83.592C252.984 84.392 252.328 85.112 251.784 85.752C251.304 86.36 250.936 86.984 250.68 87.624C250.456 88.232 250.312 88.888 250.248 89.592C250.152 91.544 250.04 93.512 249.912 95.496C249.816 97.48 249.72 99.464 249.624 101.448C249.496 103.784 249.288 105.88 249 107.736C248.712 109.56 248.36 111.16 247.944 112.536C247.528 113.912 247.112 115.048 246.696 115.944C246.312 116.808 245.928 117.416 245.544 117.768C244.808 118.472 244.232 118.824 243.816 118.824ZM265.229 108.496C264.365 107.664 263.709 107.04 263.261 106.624C262.781 106.176 262.381 105.808 262.061 105.52C261.709 105.232 261.293 104.928 260.813 104.608V104.128C261.037 103.776 261.357 103.344 261.773 102.832C262.189 102.32 262.653 101.808 263.165 101.296C263.645 100.752 264.093 100.272 264.509 99.856C264.925 99.44 265.229 99.168 265.421 99.04H265.901C267.213 99.872 268.221 100.624 268.925 101.296C269.661 101.968 270.029 102.688 270.029 103.456C270.029 104.256 269.565 105.104 268.637 106C267.741 106.896 266.733 107.728 265.613 108.496H265.229ZM254.353 145.752L253.969 144.552C255.953 143.528 257.745 142.552 259.345 141.624C260.977 140.696 262.417 139.816 263.665 138.984C264.913 138.12 265.969 137.32 266.833 136.584C267.697 135.848 268.337 135.176 268.753 134.568C269.201 133.928 269.425 133.368 269.425 132.888C269.425 132.504 269.153 131.976 268.609 131.304C268.065 130.632 267.137 129.88 265.825 129.048C264.513 128.184 262.721 127.288 260.449 126.36C260.673 125.56 260.977 124.632 261.361 123.576C261.777 122.488 262.225 121.4 262.705 120.312C263.185 119.192 263.649 118.184 264.097 117.288C264.545 116.392 264.929 115.736 265.249 115.32H265.921C267.361 116.056 268.641 117 269.761 118.152C270.881 119.272 271.745 120.584 272.353 122.088C272.993 123.56 273.313 125.24 273.313 127.128C273.313 128.92 273.057 130.648 272.545 132.312C272.065 133.944 271.441 135.432 270.673 136.776C269.937 138.12 269.169 139.24 268.369 140.136C267.601 141.032 266.913 141.624 266.305 141.912C265.505 142.296 264.017 142.856 261.841 143.592C259.697 144.328 257.201 145.048 254.353 145.752Z" fill="white"/>
<defs>
<linearGradient id="paint0_linear_91_62" x1="198.5" y1="0" x2="198.5" y2="200" gradientUnits="userSpaceOnUse">
<stop stop-color="#9C8466"/>
<stop offset="1" stop-color="#6F5A41"/>
</linearGradient>
</defs>
</svg>
