<?xml version="1.0" encoding="UTF-8"?>
<svg width="512" height="512" viewBox="0 0 512 512" fill="none" xmlns="http://www.w3.org/2000/svg">
  <!-- Background gradient -->
  <rect width="512" height="512" fill="url(#daily_gradient)"/>
  
  <!-- Sun rays -->
  <g opacity="0.7">
    <path d="M256 120C256 120 310 80 350 80C390 80 432 120 432 180C432 240 360 320 256 380C152 320 80 240 80 180C80 120 122 80 162 80C202 80 256 120 256 120Z" fill="#FFF8E1" stroke="#F9A825" stroke-width="8"/>
    <circle cx="256" cy="220" r="60" fill="#F9A825"/>
    
    <!-- Rays -->
    <line x1="256" y1="120" x2="256" y2="80" stroke="#F9A825" stroke-width="10" stroke-linecap="round"/>
    <line x1="320" y1="150" x2="350" y2="110" stroke="#F9A825" stroke-width="10" stroke-linecap="round"/>
    <line x1="192" y1="150" x2="162" y2="110" stroke="#F9A825" stroke-width="10" stroke-linecap="round"/>
    <line x1="180" y1="220" x2="140" y2="220" stroke="#F9A825" stroke-width="10" stroke-linecap="round"/>
    <line x1="332" y1="220" x2="372" y2="220" stroke="#F9A825" stroke-width="10" stroke-linecap="round"/>
    <line x1="320" y1="290" x2="350" y2="330" stroke="#F9A825" stroke-width="10" stroke-linecap="round"/>
    <line x1="192" y1="290" x2="162" y2="330" stroke="#F9A825" stroke-width="10" stroke-linecap="round"/>
    <line x1="256" y1="320" x2="256" y2="360" stroke="#F9A825" stroke-width="10" stroke-linecap="round"/>
  </g>
  
  <!-- Prayer beads -->
  <path d="M156 380C156 380 196 420 256 420C316 420 356 380 356 380" stroke="#A79277" stroke-width="10" stroke-linecap="round"/>
  <circle cx="156" cy="380" r="12" fill="#A79277"/>
  <circle cx="186" cy="392" r="12" fill="#A79277"/>
  <circle cx="216" cy="400" r="12" fill="#A79277"/>
  <circle cx="256" cy="404" r="12" fill="#A79277"/>
  <circle cx="296" cy="400" r="12" fill="#A79277"/>
  <circle cx="326" cy="392" r="12" fill="#A79277"/>
  <circle cx="356" cy="380" r="12" fill="#A79277"/>
  
  <!-- Gradient definition -->
  <defs>
    <linearGradient id="daily_gradient" x1="0" y1="0" x2="512" y2="512" gradientUnits="userSpaceOnUse">
      <stop offset="0" stop-color="#FFF8E1"/>
      <stop offset="1" stop-color="#FFD54F"/>
    </linearGradient>
  </defs>
</svg> 